HIERARCHY
ROOT joint_0
{
	OFFSET 0.000000 0.000000 0.000000
	CHANNELS 6 Xposition Yposition Zposition Zrotation Yrotation Xrotation 
	JOINT joint_1
	{
		OFFSET -0.613770 -1.125488 108.300049
		CHANNELS 3 Zrotation Yrotation Xrotation
		JOINT joint_2
		{
			OFFSET -10.925537 -0.900513 98.259033
			CHANNELS 3 Zrotation Yrotation Xrotation
			JOINT joint_3
			{
				OFFSET -11.287842 0.313599 98.110962
				CHANNELS 3 Zrotation Yrotation Xrotation
				JOINT joint_4
				{
					OFFSET -2.124268 2.484680 136.491943
					CHANNELS 3 Zrotation Yrotation Xrotation
					JOINT joint_5
					{
						OFFSET 16.640869 1.801270 81.862061
						CHANNELS 3 Zrotation Yrotation Xrotation
						End Site
						{
							OFFSET 0.000000 0.000000 0.000000
						}
					}
				}
				JOINT joint_6
				{
					OFFSET 0.447998 -28.248108 77.258057
					CHANNELS 3 Zrotation Yrotation Xrotation
					JOINT joint_7
					{
						OFFSET 7.918701 -130.256348 -24.086060
						CHANNELS 3 Zrotation Yrotation Xrotation
						JOINT joint_8
						{
							OFFSET 62.431885 -29.384277 -258.572021
							CHANNELS 3 Zrotation Yrotation Xrotation
							JOINT joint_9
							{
								OFFSET 53.743164 -21.907532 -238.024963
								CHANNELS 3 Zrotation Yrotation Xrotation
								End Site
								{
									OFFSET 0.000000 0.000000 0.000000
								}
							}
						}
					}
				}
				JOINT joint_10
				{
					OFFSET -2.846924 31.052063 76.130981
					CHANNELS 3 Zrotation Yrotation Xrotation
					JOINT joint_11
					{
						OFFSET 9.073730 131.055603 -18.752930
						CHANNELS 3 Zrotation Yrotation Xrotation
						JOINT joint_12
						{
							OFFSET 52.981201 29.883301 -260.613037
							CHANNELS 3 Zrotation Yrotation Xrotation
							JOINT joint_13
							{
								OFFSET 62.237793 15.935547 -236.423035
								CHANNELS 3 Zrotation Yrotation Xrotation
								End Site
								{
									OFFSET 0.000000 0.000000 0.000000
								}
							}
						}
					}
				}
			}
		}
	}
	JOINT joint_14
	{
		OFFSET 22.046143 -72.816772 -98.122925
		CHANNELS 3 Zrotation Yrotation Xrotation
		JOINT joint_15
		{
			OFFSET -23.673828 -54.692932 -469.927032
			CHANNELS 3 Zrotation Yrotation Xrotation
			JOINT joint_16
			{
				OFFSET -34.875244 -46.505249 -395.890999
				CHANNELS 3 Zrotation Yrotation Xrotation
				JOINT joint_17
				{
					OFFSET 168.486328 14.224182 -74.182999
					CHANNELS 3 Zrotation Yrotation Xrotation
					End Site
					{
						OFFSET 0.000000 0.000000 0.000000
					}
				}
			}
		}
	}
	JOINT joint_18
	{
		OFFSET -1.731934 82.408569 -92.846924
		CHANNELS 3 Zrotation Yrotation Xrotation
		JOINT joint_19
		{
			OFFSET -6.908936 32.203369 -472.535034
			CHANNELS 3 Zrotation Yrotation Xrotation
			JOINT joint_20
			{
				OFFSET -13.963135 23.196533 -399.207993
				CHANNELS 3 Zrotation Yrotation Xrotation
				JOINT joint_21
				{
					OFFSET 168.417725 19.834229 -73.041004
					CHANNELS 3 Zrotation Yrotation Xrotation
					End Site
					{
						OFFSET 0.000000 0.000000 0.000000
					}
				}
			}
		}
	}
}
MOTION
Frames: 6
Frame Time: 0.016667
-2945.449707 1035.947510 1060.139038 -3.369597 1.228941 -1.395493 0.420956 -1.120848 2.139076 0.164998 0.073717 -0.438499 0.252154 -0.210832 0.294249 0.040177 1.399797 -0.331839 0.000000 0.000000 0.000000 0.966517 2.956479 -1.135140 -0.263776 3.291159 0.651281 0.842205 -2.616057 2.637996 0.000000 0.000000 0.000000 2.935015 1.217228 -1.563220 -0.036543 0.689649 -0.078889 -0.303417 0.460053 -1.269509 0.000000 0.000000 0.000000 1.150740 -5.264392 4.576576 0.570907 1.892092 -0.144800 0.576846 1.661208 0.111496 0.000000 0.000000 0.000000 1.463281 -3.434921 1.109719 1.869158 1.890933 -1.016752 1.669591 -0.478297 0.779032 0.000000 0.000000 0.000000 
-2945.677490 1035.825562 1060.097046 -3.392066 1.166890 -1.384015 0.426532 -1.096530 2.115995 0.173014 0.068367 -0.435128 0.259258 -0.201174 0.290376 0.039859 1.417166 -0.331912 0.000000 0.000000 0.000000 0.968178 2.975154 -1.116984 -0.265584 3.309337 0.650691 0.841420 -2.620451 2.632605 0.000000 0.000000 0.000000 2.928143 1.225491 -1.574566 -0.035194 0.697919 -0.073278 -0.304289 0.468119 -1.274899 0.000000 0.000000 0.000000 1.156447 -5.212613 4.575833 0.582792 1.890462 -0.148231 0.585732 1.681052 0.113690 0.000000 0.000000 0.000000 1.472074 -3.387316 1.112159 1.875948 1.908687 -1.026536 1.675340 -0.471337 0.780693 0.000000 0.000000 0.000000 
-2945.890381 1035.691772 1060.047974 -3.416023 1.105697 -1.369544 0.433392 -1.074559 2.087551 0.183116 0.064127 -0.430065 0.268117 -0.191598 0.285298 0.038751 1.435771 -0.328229 0.000000 0.000000 0.000000 0.969574 2.994331 -1.091088 -0.269404 3.327428 0.643036 0.844362 -2.629135 2.641939 0.000000 0.000000 0.000000 2.921376 1.231069 -1.583933 -0.033733 0.703539 -0.066269 -0.305908 0.471495 -1.281909 0.000000 0.000000 0.000000 1.162750 -5.160233 4.573785 0.595603 1.887067 -0.154317 0.594845 1.703177 0.115790 0.000000 0.000000 0.000000 1.481396 -3.340581 1.112755 1.883476 1.928867 -1.037753 1.681565 -0.465415 0.782682 0.000000 0.000000 0.000000 
-2946.086182 1035.547363 1059.989014 -3.440488 1.040537 -1.354115 0.441155 -1.047623 2.058279 0.193972 0.056656 -0.426065 0.277827 -0.178874 0.280259 0.037406 1.454895 -0.323431 0.000000 0.000000 0.000000 0.972021 3.012575 -1.060747 -0.273808 3.344490 0.633284 0.849211 -2.639778 2.658920 0.000000 0.000000 0.000000 2.915874 1.233623 -1.592073 -0.032353 0.705963 -0.058434 -0.307964 0.471578 -1.289729 0.000000 0.000000 0.000000 1.168910 -5.101369 4.572481 0.609419 1.881394 -0.162690 0.604435 1.725684 0.118066 0.000000 0.000000 0.000000 1.491095 -3.289062 1.113727 1.891177 1.950691 -1.050273 1.687711 -0.461233 0.784843 0.000000 0.000000 0.000000 
-2946.254639 1035.384033 1059.910034 -3.466719 0.959108 -1.341786 0.451477 -1.001152 2.032450 0.206408 0.042801 -0.424138 0.289456 -0.159117 0.276647 0.035628 1.475816 -0.316680 0.000000 0.000000 0.000000 0.973253 3.027927 -1.030374 -0.276697 3.358484 0.628491 0.853077 -2.649524 2.671997 0.000000 0.000000 0.000000 2.911196 1.232036 -1.600494 -0.030837 0.703848 -0.046562 -0.310986 0.470940 -1.301020 0.000000 0.000000 0.000000 1.173712 -5.023015 4.576813 0.624409 1.875735 -0.172047 0.615303 1.745979 0.121090 0.000000 0.000000 0.000000 1.502415 -3.218637 1.120881 1.899416 1.974264 -1.064989 1.694080 -0.459118 0.787344 0.000000 0.000000 0.000000 
-2946.410645 1035.207764 1059.812988 -3.499384 0.878304 -1.328322 0.464334 -0.955490 2.005238 0.221616 0.032474 -0.421863 0.303859 -0.142207 0.273117 0.034098 1.489291 -0.310485 0.000000 0.000000 0.000000 0.979613 3.042211 -1.002294 -0.277139 3.372677 0.633552 0.854231 -2.656900 2.674239 0.000000 0.000000 0.000000 2.905016 1.228720 -1.606373 -0.029165 0.700242 -0.032230 -0.315084 0.469308 -1.316137 0.000000 0.000000 0.000000 1.180573 -4.946334 4.581140 0.641005 1.872291 -0.181961 0.627959 1.765953 0.124923 0.000000 0.000000 0.000000 1.515755 -3.147935 1.129360 1.909798 1.998873 -1.083087 1.702388 -0.456824 0.790663 0.000000 0.000000 0.000000 
